<?xml version="1.0" encoding="utf-8"?>
<!-- Generator: Adobe Illustrator 24.2.0, SVG Export Plug-In . SVG Version: 6.00 Build 0)  -->
<svg version="1.1" id="Layer_1" xmlns="http://www.w3.org/2000/svg" xmlns:xlink="http://www.w3.org/1999/xlink" x="0px" y="0px"
	 viewBox="0 0 256 256" style="enable-background:new 0 0 256 256;" xml:space="preserve">
<style type="text/css">
	.st0{fill:#00A9E0;}
	.st1{fill:#FFFFFF;}
	.st2{fill:#21B3E8;}
</style>
<rect x="-232.6" y="59.2" class="st0" width="142" height="134.9"/>
<g>
	<g>
		<g>
			<g>
				<path class="st1" d="M-165.1,157.1l-5.4-12.6h-24.4l-5.4,12.6h-13.8l25.2-58.2h12.6l25.2,58.2H-165.1z M-182.7,116.2l-7.3,16.9
					h14.6L-182.7,116.2z"/>
			</g>
		</g>
		<g>
			<g>
				<path class="st1" d="M-119.7,131.8c-2.1-2.5-5-4.1-8.6-4.9c1-0.4,1.7-0.8,2.1-1c0.4-0.2,1.1-0.7,2.1-1.5
					c2.9-2.2,4.4-5.6,4.4-10.2c0-3.8-1.3-7.2-3.9-10.2c-1.4-1.6-3.6-2.9-6.5-3.8c-2.9-0.9-6.3-1.4-10.2-1.4H-163v21.3l16,37h9.5
					c8,0,13.6-1.8,16.8-5.4c2.8-3.1,4.2-6.7,4.2-10.7C-116.5,137.3-117.6,134.2-119.7,131.8z M-150,109.9h6.2c3.8,0,6.6,0.4,8.2,1.2
					c1.6,0.8,2.4,2.5,2.4,5.1c0,2.6-0.9,4.3-2.6,5c-1.8,0.8-4.4,1.2-8,1.2h-6.2V109.9z M-132.7,144.8c-1.9,0.9-4.7,1.4-8.4,1.4h-8.9
					v-13.4h7.7c4.3,0,7.5,0.4,9.5,1.3c2,0.9,3,2.6,3,5.3C-129.9,142.1-130.9,143.9-132.7,144.8z"/>
			</g>
		</g>
	</g>
</g>
<rect x="0" y="-0.4" class="st2" width="256.7" height="256.2"/>
<rect x="-5.9" y="-6.8" class="st0" width="270.5" height="266.6"/>
<g>
	<g>
		<g>
			<g>
				<path class="st1" d="M122.8,185.9L112,160.8H63.2l-10.8,25.2H24.7L75,69.5h25.2l50.3,116.5H122.8z M87.7,104.1L73,138h29.2
					L87.7,104.1z"/>
			</g>
		</g>
		<g>
			<g>
				<path class="st1" d="M213.5,135.2c-4.3-4.9-10-8.2-17.2-9.7c2-0.9,3.4-1.5,4.2-1.9c0.8-0.4,2.2-1.4,4.2-2.9
					c5.9-4.4,8.8-11.2,8.8-20.3c0-7.6-2.6-14.3-7.8-20.3c-2.9-3.2-7.2-5.8-12.9-7.7c-5.7-1.9-12.5-2.8-20.4-2.8H127V112l31.9,73.9
					H178c16,0,27.2-3.6,33.7-10.8c5.6-6.2,8.3-13.4,8.3-21.5C219.9,146.3,217.8,140.2,213.5,135.2z M153,91.5h12.5
					c7.7,0,13.1,0.8,16.3,2.5c3.2,1.7,4.8,5.1,4.8,10.2c0,5.2-1.7,8.5-5.2,10.1c-3.5,1.6-8.9,2.3-16.1,2.3H153V91.5z M187.5,161.2
					c-3.7,1.8-9.3,2.8-16.7,2.8H153v-26.8h15.3c8.7,0,15,0.9,18.9,2.6c3.9,1.7,5.9,5.3,5.9,10.7
					C193.1,155.8,191.3,159.4,187.5,161.2z"/>
			</g>
		</g>
	</g>
</g>
</svg>
